# xmcd CD database file
#
# Track frame offsets:
#	150
#	32412
#	43997
#	53341
#	71689
#	85604
#	102908
#	112799
#	131802
#	145329
#	161074
#	173067
#	192305
#	207771
#	231546
#	236985
#	255429
#
# Disc length: 3563 seconds
#
# Revision: 0
# Processed by: cddbd v1.5.2PL0 Copyright (c) Steve Scherf et al.
# Submitted via: jetAudio 7
#
DISCID=ea0de911
DTITLE=Footloose Cast - Footloose
DYEAR=1900
DGENRE=Musical
TTITLE0=Footloose - Iedere Zondag
TTITLE1=Ze Neemt Wat Ze Kan
TTITLE2=Ik Dans Altijd
TTITLE3=Zij Weten Jou Te Vinden
TTITLE4=Leer Zo Niets Te Zeggen
TTITLE5=Waar Zijn De Mannen
TTITLE6=Geef Een Antwoord
TTITLE7=Samen Sterk - Geef Een Antwoord
TTITLE8=Totdat De Maan Weer Moet Gaan
TTITLE9=Die Jongen Is Van Mij
TTITLE10=Kan Je Hart Het Aan
TTITLE11=Volgens Ma
TTITLE12=Dit Moet Liefde Zijn
TTITLE13=Ik Geef Toe
TTITLE14=Kan Je Hart Het Aan Reprise
TTITLE15=Footloose Finale
TTITLE16=Kan Je Hart Het Aan Bonustrack
EXTD=
EXTT0=
EXTT1=
EXTT2=
EXTT3=
EXTT4=
EXTT5=
EXTT6=
EXTT7=
EXTT8=
EXTT9=
EXTT10=
EXTT11=
EXTT12=
EXTT13=
EXTT14=
EXTT15=
EXTT16=
PLAYORDER=
